<svg version="1.1" xmlns="http://www.w3.org/2000/svg" width="32.000000pt" height="32.000000pt" viewBox="0 0 128.000000 128.000000" preserveAspectRatio="xMidYMid meet">
          <path d="M0 0 C5.61 0 11.22 0 17 0 C19.10093423 4.4651242 21.20098621 8.9306419 23.29882812 13.3972168 C24.01218289 14.91536133 24.72604425 16.43326793 25.44042969 17.95092773 C26.4694455 20.13722805 27.49661344 22.32438835 28.5234375 24.51171875 C28.84122162 25.18587326 29.15900574 25.86002777 29.48641968 26.55461121 C31.10502378 30.0073346 32.58196869 33.45492172 34 37 C34.33 24.79 34.66 12.58 35 0 C41.991875 -0.0928125 41.991875 -0.0928125 49.125 -0.1875 C50.58437988 -0.21481201 52.04375977 -0.24212402 53.54736328 -0.27026367 C54.70993652 -0.27775635 55.87250977 -0.28524902 57.0703125 -0.29296875 C58.25383301 -0.3086792 59.43735352 -0.32438965 60.65673828 -0.34057617 C65.82892504 0.18631156 69.03830709 2.14283892 72.875 5.5625 C75.54537109 9.02793303 75.65305002 12.32733995 75.421875 16.59765625 C74.62186184 21.15328677 72.49672832 23.91487197 68.8125 26.5859375 C65.40989367 28.29669235 62.46059061 28.72908712 58.6875 29.1875 C57.43324219 29.34605469 56.17898437 29.50460938 54.88671875 29.66796875 C53.93410156 29.77753906 52.98148437 29.88710937 52 30 C52.01160156 30.84304687 52.02320312 31.68609375 52.03515625 32.5546875 C52.04417969 33.65039062 52.05320312 34.74609375 52.0625 35.875 C52.07410156 36.96554688 52.08570312 38.05609375 52.09765625 39.1796875 C52 42 52 42 51 44 C40.77 44 30.54 44 20 44 C18 40 18 40 18 37 C11.73 37 5.46 37 -1 37 C-1.66 38.98 -2.32 40.96 -3 43 C-5.05922402 45.05922402 -9.21708124 44.41427579 -12.0625 44.5625 C-13.20041992 44.62727539 -13.20041992 44.62727539 -14.36132812 44.69335938 C-16.24065438 44.79973633 -18.12030244 44.90039934 -20 45 C-17.56699942 36.97369558 -14.12987119 29.50636692 -10.5625 21.9375 C-9.98329754 20.69746471 -9.40451894 19.45723135 -8.82617188 18.21679688 C-5.96822105 12.10109412 -3.05803433 6.01839189 0 0 Z M51 9 C51 12.3 51 15.6 51 19 C54.41656024 19.16677282 54.41656024 19.16677282 58 19 C60.30662599 17.11340125 60.30662599 17.11340125 60.3125 14 C60.209375 13.01 60.10625 12.02 60 11 C56.5647952 8.70986347 55.014669 8.82157027 51 9 Z M8 13 C7.16260219 15.1234016 6.33019717 17.2487728 5.5 19.375 C5.0359375 20.55835938 4.571875 21.74171875 4.09375 22.9609375 C2.88712206 25.7753244 2.88712206 25.7753244 3 28 C6.63 28 10.26 28 14 28 C12.35 23.05 10.7 18.1 9 13 C8.67 13 8.34 13 8 13 Z " fill="#104B8D" transform="translate(21,40)"/>
          <path d="M0 0 C42.24 0 84.48 0 128 0 C125.39084348 6.5228913 122.57070323 12.63994835 118 18 C114.54085681 19.3414007 111.66000015 19.45750002 108 19 C108.67281104 14.62672827 110.22609151 13.16086274 113 9 C80.66 9 48.32 9 15 9 C16.98 11.97 16.98 11.97 19 15 C18.734375 17.7734375 18.734375 17.7734375 17.75 20.375 C17.43546875 21.24898437 17.1209375 22.12296875 16.796875 23.0234375 C16.53390625 23.67570312 16.2709375 24.32796875 16 25 C15.01 25 14.02 25 13 25 C11.46606445 23.02807617 11.46606445 23.02807617 9.86328125 20.29296875 C9.28642578 19.31392578 8.70957031 18.33488281 8.11523438 17.32617188 C7.52033203 16.29041016 6.92542969 15.25464844 6.3125 14.1875 C5.70599609 13.16333984 5.09949219 12.13917969 4.47460938 11.08398438 C0 3.40819214 0 3.40819214 0 0 Z " fill="#0F9739" transform="translate(0,18)"/>
          <path d="M0 0 C6.991875 -0.0928125 6.991875 -0.0928125 14.125 -0.1875 C15.58437988 -0.21481201 17.04375977 -0.24212402 18.54736328 -0.27026367 C19.70993652 -0.27775635 20.87250977 -0.28524902 22.0703125 -0.29296875 C23.25383301 -0.3086792 24.43735352 -0.32438965 25.65673828 -0.34057617 C30.82892504 0.18631156 34.03830709 2.14283892 37.875 5.5625 C40.54537109 9.02793303 40.65305002 12.32733995 40.421875 16.59765625 C39.5882932 21.34444148 37.31639817 24.04561133 33.5 26.8125 C27.72528571 29.55548929 22.3123456 29.07514697 16 29 C15.67 33.29 15.34 37.58 15 42 C10.05 42.33 5.1 42.66 0 43 C0 28.81 0 14.62 0 0 Z M16 9 C16 12.3 16 15.6 16 19 C19.41656024 19.16677282 19.41656024 19.16677282 23 19 C25.30662599 17.11340125 25.30662599 17.11340125 25.3125 14 C25.209375 13.01 25.10625 12.02 25 11 C21.5647952 8.70986347 20.014669 8.82157027 16 9 Z " fill="#06468A" transform="translate(56,40)"/>
          <path d="M0 0 C5.61 0 11.22 0 17 0 C17 14.52 17 29.04 17 44 C11.39 44 5.78 44 0 44 C0 29.48 0 14.96 0 0 Z " fill="#014487" transform="translate(100,40)"/>
          <path d="M0 0 C0.495 0.99 0.495 0.99 1 2 C0.12646484 3.98925781 0.12646484 3.98925781 -1.2890625 6.453125 C-1.81258301 7.37279053 -2.33610352 8.29245605 -2.87548828 9.23999023 C-3.45282715 10.23329346 -4.03016602 11.22659668 -4.625 12.25 C-5.20878418 13.26457275 -5.79256836 14.27914551 -6.39404297 15.32446289 C-7.62733365 17.46283778 -8.86458308 19.59893363 -10.10546875 21.73291016 C-11.97222315 24.95209926 -13.81576573 28.18370522 -15.65625 31.41796875 C-16.81144615 33.42508608 -17.96765887 35.43161874 -19.125 37.4375 C-19.66850098 38.39624023 -20.21200195 39.35498047 -20.77197266 40.34277344 C-21.2829248 41.21836914 -21.79387695 42.09396484 -22.3203125 42.99609375 C-22.76648926 43.77138428 -23.21266602 44.5466748 -23.67236328 45.34545898 C-24.1104834 45.89145752 -24.54860352 46.43745605 -25 47 C-25.99 47 -26.98 47 -28 47 C-28.87398437 45.39898437 -28.87398437 45.39898437 -29.765625 43.765625 C-35.02840264 34.18458723 -40.47022482 24.75085859 -46.23925781 15.46386719 C-46.73006836 14.66239258 -47.22087891 13.86091797 -47.7265625 13.03515625 C-48.16564941 12.3275415 -48.60473633 11.61992676 -49.05712891 10.89086914 C-50 9 -50 9 -50 6 C-46.84822061 5.43267971 -44.13711863 5.28161534 -41 6 C-38.23568149 8.52905736 -36.7372294 11.71370459 -35 15 C-34.29007442 16.24110745 -33.57490651 17.47922595 -32.85546875 18.71484375 C-30.8728011 22.12643377 -28.92915152 25.55788447 -27 29 C-24.20854533 26.50382577 -22.53721365 23.72840847 -20.6796875 20.4921875 C-20.06222656 19.42355469 -19.44476563 18.35492188 -18.80859375 17.25390625 C-18.17050781 16.13886719 -17.53242187 15.02382812 -16.875 13.875 C-15.60284283 11.66332556 -14.32947207 9.45234858 -13.0546875 7.2421875 C-12.49249512 6.2610498 -11.93030273 5.27991211 -11.35107422 4.26904297 C-10 2 -10 2 -9 1 C-7.48530552 0.76807135 -5.96245438 0.58784762 -4.4375 0.4375 C-3.61121094 0.35371094 -2.78492188 0.26992187 -1.93359375 0.18359375 C-0.97646484 0.09271484 -0.97646484 0.09271484 0 0 Z " fill="#0A9535" transform="translate(90,81)"/>
          <path d="M0 0 C1.65 0 3.3 0 5 0 C5.75 2.25 5.75 2.25 6 5 C4.1875 7.3125 4.1875 7.3125 2 9 C1.34 9 0.68 9 0 9 C0 10.32 0 11.64 0 13 C-1.093125 13.309375 -2.18625 13.61875 -3.3125 13.9375 C-5.55407994 14.58337897 -7.7869351 15.2623117 -10 16 C-10 15.34 -10 14.68 -10 14 C-9.34 14 -8.68 14 -8 14 C-8 13.34 -8 12.68 -8 12 C-7.34 11.34 -6.68 10.68 -6 10 C-5.67 9.01 -5.34 8.02 -5 7 C-4.01 7 -3.02 7 -2 7 C-1.855625 6.21625 -1.71125 5.4325 -1.5625 4.625 C-1 2 -1 2 0 0 Z " fill="#089535" transform="translate(73,99)"/>
          <path d="M0 0 C0.33 0.66 0.66 1.32 1 2 C0.00390625 4.1640625 0.00390625 4.1640625 -1.4375 6.625 C-1.91058594 7.44226563 -2.38367188 8.25953125 -2.87109375 9.1015625 C-3.24363281 9.72804688 -3.61617188 10.35453125 -4 11 C-4.66 10.01 -5.32 9.02 -6 8 C-5.34 6.68 -4.68 5.36 -4 4 C-5.65 4.33 -7.3 4.66 -9 5 C-9 3.68 -9 2.36 -9 1 C-4.545 0.505 -4.545 0.505 0 0 Z " fill="#279D47" transform="translate(90,81)"/>
          <path d="M0 0 C1.98 0 3.96 0 6 0 C5.67 1.98 5.34 3.96 5 6 C3.906875 6.309375 2.81375 6.61875 1.6875 6.9375 C-0.55407994 7.58337897 -2.7869351 8.2623117 -5 9 C-5 8.34 -5 7.68 -5 7 C-4.34 7 -3.68 7 -3 7 C-3 6.34 -3 5.68 -3 5 C-2.34 4.34 -1.68 3.68 -1 3 C-0.67 2.01 -0.34 1.02 0 0 Z " fill="#00912C" transform="translate(68,106)"/>
          <path d="M0 0 C2.46800047 1.15173355 4.04783565 2.04783565 6 4 C6.45375 3.34 6.9075 2.68 7.375 2 C7.91125 1.34 8.4475 0.68 9 0 C9.66 0 10.32 0 11 0 C9.94124926 3.40312738 8.99097846 6.01353231 7 9 C6.01 9 5.02 9 4 9 C0 2.25 0 2.25 0 0 Z " fill="#22993F" transform="translate(58,119)"/>
          <path d="M0 0 C3.28465896 2.79196011 5.01321958 6.23196817 7 10 C7 10.66 7 11.32 7 12 C3.33663903 10.77887968 2.64957986 9.13279518 0.76953125 5.88671875 C0 4 0 4 0 0 Z " fill="#22973B" transform="translate(56,100)"/>
          <path d="M0 0 C1 2 1 2 0.0625 5.125 C-0.288125 6.07375 -0.63875 7.0225 -1 8 C-1.99 8 -2.98 8 -4 8 C-4.66 6.35 -5.32 4.7 -6 3 C-5.195625 2.690625 -4.39125 2.38125 -3.5625 2.0625 C-1.10919595 1.23664655 -1.10919595 1.23664655 0 0 Z " fill="#2FA051" transform="translate(17,35)"/>
          <path d="M0 0 C0.33 0.66 0.66 1.32 1 2 C-0.21484375 4.3828125 -0.21484375 4.3828125 -1.9375 7.125 C-2.50339844 8.03507812 -3.06929688 8.94515625 -3.65234375 9.8828125 C-4.09707031 10.58148438 -4.54179688 11.28015625 -5 12 C-5.625 10.1875 -5.625 10.1875 -6 8 C-5.34 7.01 -4.68 6.02 -4 5 C-3.34 5 -2.68 5 -2 5 C-2 3.68 -2 2.36 -2 1 C-1.34 0.67 -0.68 0.34 0 0 Z " fill="#309E4A" transform="translate(75,107)"/>
          <path d="M0 0 C0.99 0 1.98 0 3 0 C6.22265625 5.078125 6.22265625 5.078125 7 7 C6.67 8.32 6.34 9.64 6 11 C4.02 7.37 2.04 3.74 0 0 Z " fill="#2D9D46" transform="translate(47,101)"/>
          <path d="M0 0 C2.22825644 2.22825644 2.69239369 3.65761628 3.625 6.625 C4.01558594 7.85089844 4.01558594 7.85089844 4.4140625 9.1015625 C4.60742188 9.72804688 4.80078125 10.35453125 5 11 C2 10 2 10 0.8125 7.75 C0.00061706 5.00208853 -0.16260121 2.84552111 0 0 Z " fill="#345895" transform="translate(45,57)"/>
          <path d="M0 0 C1.0326802 2.78823655 1.04509293 3.8677274 0.0625 6.75 C-0.288125 7.4925 -0.63875 8.235 -1 9 C-1.99 8.67 -2.98 8.34 -4 8 C-2.87548273 5.0280615 -1.77706209 2.66559313 0 0 Z " fill="#2A9E49" transform="translate(79,85)"/>
          <path d="M0 0 C0.99 0 1.98 0 3 0 C1.8141763 3.37503669 0.72426311 5.64722731 -2 8 C-3 5 -3 5 -1.75 2.3125 C-1.1725 1.549375 -0.595 0.78625 0 0 Z " fill="#21983F" transform="translate(125,18)"/>
          <path d="M0 0 C1.9375 0.5625 1.9375 0.5625 4 2 C4.75 5.625 4.75 5.625 5 9 C2.67527795 6.14693203 1.2491742 3.45925163 0 0 Z " fill="#2D9E48" transform="translate(58,119)"/>
          <path d="M0 0 C0.99 0.33 1.98 0.66 3 1 C4.1875 3.5625 4.1875 3.5625 5 6 C4.34 6.66 3.68 7.32 3 8 C0 3.375 0 3.375 0 0 Z " fill="#259D45" transform="translate(40,87)"/>
          <path d="M0 0 C0.33 0 0.66 0 1 0 C1.36923077 5.53846154 1.36923077 5.53846154 -0.5 7.875 C-1.2425 8.431875 -1.2425 8.431875 -2 9 C-2.33 8.34 -2.66 7.68 -3 7 C-2.06421005 4.64018187 -1.06652192 2.30368736 0 0 Z " fill="#3B5F9B" transform="translate(19,43)"/>
        </svg>