<?xml version="1.0" encoding="UTF-8"?> <svg xmlns="http://www.w3.org/2000/svg" viewBox="0 0 462.1 192.72"><defs><style>.cls-1{fill:#93d500;}.cls-2{fill:#00609c;}.cls-3{fill:#1d1d1b;}</style></defs><g id="Capa_2" data-name="Capa 2"><g id="Capa_1-2" data-name="Capa 1"><path class="cls-1" d="M59,44.43H84V77.26H59V99.11c0,8.81,2.88,12,9.44,12H84l.19,32.2H48.93c-21.77,0-32.2-11.78-32.2-33.1v-33H0V44.43H8.64c5.84,0,6.92-3.24,8.09-9L19.43,22H59Z"></path><path class="cls-1" d="M114.45,0c14.48,0,23.83,9,23.83,20,0,11.15-9.35,20.14-23.83,20.14s-24-9-24-20.14,9.53-20,24-20m21,143.36H93.23V44.43h42.26Z"></path><path class="cls-2" d="M267,87.66l-.1.15.1-.15"></path><path class="cls-2" d="M254.88,98.24h0"></path><path class="cls-2" d="M247.61,88.49a5.55,5.55,0,0,1-.17-1.86c.05-.07,0-.17,0-.24-.2,1.41-.33,2.83-.41,4.28.21-.78.6-2.18.6-2.18"></path><path class="cls-2" d="M278,50.42c-.11.06.13.7.13.7.69,0,1.64.43,1.4,1.47.68-.39,1.57-.52,1.68-.79a1.14,1.14,0,0,1,.49-.47,1.53,1.53,0,0,1-.26-.78c.62-.22.83-.3.94-.52.5-.57.76-.15,1-.48s.74-.61.91-.88.31-.64.75-.43.72.81.39.75a2,2,0,0,0-1.14.44c-.17.16-1.06.22-1.06.43s-.17,1.34-.5,1.34-.51.46-.51.46l-.49,1c.93-.44.71-.36,1.14-.19a1.33,1.33,0,0,0,1.3-.2c.21-.28.44.23.44.23v0l.47-.31c-.11-.15-.33-.13-.64-.16s-.43-.11-.43-.38-.43-.24-.24-.46a2,2,0,0,0,.3-.69.92.92,0,0,1,.37-.26,1.05,1.05,0,0,0,.46-.33,2.6,2.6,0,0,1,.52-.37,2.16,2.16,0,0,0,1.09,0,.41.41,0,0,1,.39,0c.31.12.82.35.82.35a3,3,0,0,0-.28.82l.21-.13a2.38,2.38,0,0,1,.21-.56c.08,0,.42.15.46.17l.91-.54c-.14-.14-.25-.29-.38-.44a.4.4,0,0,1-.49.1,11.22,11.22,0,0,0-1.53-.79c-.21,0-.84,0-.62-.41s.38-.51.38-.73.19-.43.19-.65c0,0,0,0,0,0l-.78.18a1.39,1.39,0,0,0-.59.39l-.37-.16c-.43.11-.9.27-1.36.41a.28.28,0,0,1,.23.15c.11.19.09.3.5.38a3.77,3.77,0,0,1-1,.76,1,1,0,0,0-.56.63,3.68,3.68,0,0,1-1,.21c-.41,0,.49-.7.57-1a.94.94,0,0,1,.63-.57c.23,0,.35-.23.41-.56-.89.27-1.82.59-2.78.94-.05.07-.08.15-.06.19a.94.94,0,0,1-.29.76.63.63,0,0,0-.23.63,1.72,1.72,0,0,1-.75-.11c-.22-.14-.33-.19-.54-.08s-.19-.3,0-.46a.15.15,0,0,0,0-.18c-.23.09-.47.21-.71.31l.41,0c-.48.44-.37.71-.48.78m7.92-3.14a.54.54,0,0,0,.39,0l-.75.44c0-.17.22-.6.36-.49M280,50.82a1.44,1.44,0,0,0,.6-.22c.11-.08.52-.35.33.08a5.29,5.29,0,0,0-.16.54s.26.37-.12.37-.59-.09-.62-.2a.53.53,0,0,0-.27-.36c-.16-.05-.05-.16.24-.21"></path><path class="cls-2" d="M302.27,79.48A76,76,0,0,1,286,77.64l-.52,0c-1.06.09-1.85.06-2.17.55s-.85,1.17-.92.73a3,3,0,0,1-.07-.32c-.63,1.76-1.26,3.52-1.83,5.35-.66,2.12-1.26,4.22-1.82,6.31a90.56,90.56,0,0,0,23.65,3.12Z"></path><path class="cls-2" d="M330.19,60.1c.05-.32.1-.67.11-.83a.56.56,0,0,1,.81-.32s-.07-1-.07-1.12-.44-.65-.55-.87a1.19,1.19,0,0,0-.65-.54c-.3-.11-.54-.52-.69-.65s.32-.32.61-.28c.6.09.49-.08.19-.22a11.23,11.23,0,0,0-1.06-.59,2.09,2.09,0,0,1-.78-.52c-.3-.24.35-1.24.62-1.24s0-.54-.1-1-.56,0-1,0a2.23,2.23,0,0,1-.06.68,11.75,11.75,0,0,0-.16,1.36s-.25,0-.79-.11-.71-.38-1.39-.92a6,6,0,0,1-1.66-2.12c-.57-1.06-.76-.71-1.46-.85-.55.65.55,1.14,1,1.44s.46.88.66,1.69c0,0,1.23,1.17,1.78,1.66a3.34,3.34,0,0,1,1.17.3c.55.27.11,1.21.13,1.48s1.23,1.24,1.64,1.59.31.43.16.58c.52.47,1,.94,1.55,1.42"></path><path class="cls-2" d="M322.23,76.1c-3.76-10-8.24-18.51-12.32-23.18a27,27,0,0,1-5.57.8c0,.05,0,.1.05.14.16.44.84.14,1.33-.08s.61,0,.41.27l-1.31,1.69s-.68.6-.95.81-.47.39-.73.63V78.61a74.13,74.13,0,0,0,19.09-2.51m-14.74-19c.16-.68.51-.39.95-.07s.54-.31,1.91-.61c0-.59.61-.35,1.41.08s.38.6.32,1-.19.6-.57.6-.57.41-1.06.65a3,3,0,0,1-1.3.3c-.6,0-.32-.74-.32-.74-.53.11-.85-.54-1.48-.52a3.45,3.45,0,0,1,.14-.67"></path><path class="cls-2" d="M283.1,72.19a1.62,1.62,0,0,1-1.31.71c-.22-.06-.87.54-.87.54,1.31-.11,1.14.16,1.79-.16a3,3,0,0,1,.71-.24l.42-1.06-.2-.07c-.33-.18-.33-.21-.54.28"></path><path class="cls-2" d="M302.27,58.12a3.19,3.19,0,0,1-.52.42,1.67,1.67,0,0,0-.87,1,3.44,3.44,0,0,1-1.31,1.36c-.32.17-.17.65.12,1.06,0,.63,0,1-.3,1.13l-1,.56c-.58-.36-1.51-.87-1.73-1s-.7-.38-.84-.76a2.52,2.52,0,0,0-.57-1.3,1.64,1.64,0,0,1-.49-1.39,3.14,3.14,0,0,0-.29-1.29,3.29,3.29,0,0,1,.13-.78c.08-.43.16-.95.41-1.06s1.16-.69,1.16-.69a12.56,12.56,0,0,0-.3-1.83,3.14,3.14,0,0,1-.8,0,58,58,0,0,0-6.83,11l.06,0c-.26.45-.28.77,0,1.07s-.23,1.06-.23,1.06a6.67,6.67,0,0,1,1.7,1.33,5.44,5.44,0,0,0,.92.63,2,2,0,0,0-1.57.24A5,5,0,0,1,288,69c0,.35.45.4.83.35s.69-.46,1.17-.49.55.11.9.38a1.06,1.06,0,0,1,.3,1.09c-.09.38-.28,1.41-.77,1.2s-1-.3-1.21.08a2.73,2.73,0,0,1-1.18.84,12.75,12.75,0,0,1-1.85-.16,2,2,0,0,0-1.34-.39c-.17.41-.33.83-.5,1.25.07.26,0,.77-.3.76l-.25.64a.26.26,0,0,1-.06.29,1.33,1.33,0,0,0-.1,1,3.25,3.25,0,0,0,.11.37c.74.19,1.51.36,2.28.54a3.77,3.77,0,0,1,.75-.85c0,.38.41,1,.35,1.08l0,0a76,76,0,0,0,15.23,1.59ZM285.55,76.35a.82.82,0,0,1-1,0c-.24-.22-.35-.29-.27-.78l.16-.42a5.81,5.81,0,0,1,.6.93c.11.27.5.32.87-.17,0,0,.07.27-.37.49m7-.71a1.86,1.86,0,0,0-.7,1.19,17.23,17.23,0,0,1-2.56-1.08,1.74,1.74,0,0,0-1.48-.36c0-.56.2-1,.55-1.11A1.37,1.37,0,0,0,289,74a1.47,1.47,0,0,0,.29-.67,1.32,1.32,0,0,1,.45-.94c.3-.21,1.39-.74,1.39-.74a2.23,2.23,0,0,0-.7,1.14,2.43,2.43,0,0,1-.43.73c.86-.36,1-.19,1.36,0l.86.45a2.16,2.16,0,0,0,.2.72c.16.33.41.65.19.92"></path><path class="cls-2" d="M304.05,52.73a1.1,1.1,0,0,1,.07.17l.57,0c-.13-.14-.28-.18-.64-.15"></path><path class="cls-2" d="M254.55,94a65.27,65.27,0,0,1,2.68-7.79c-.48-.18-1.05-.4-.78-.27.43.22-1,.57-1.64.44s-.65.35-.78.87-.25.81-.46,1.48c0,0-.68.75-.87.91s-.22.17-.06.65c0,0-.46.49-.41.87a1.78,1.78,0,0,1,0,.4A25.14,25.14,0,0,0,254.55,94"></path><path class="cls-2" d="M282.81,74.13l.17.05a.69.69,0,0,1,0-.13l-.22.08"></path><path class="cls-2" d="M342.09,64.37c.37.52.76,1,.85,1.15s.86-.09.83.35.36,1.52,0,1.45-1.15.17-.95.66.92,1.37.72,1.71l-.13.48c.47,0,.66-.28.95,0s.28.5,0,.45-.7.27-.32.38.6-.18.84.49.34,1.06.09.9-1.09-.6-1.3-.7c0-.45,0-.78,0-.78-.35.3-.36.28-.69.06s-.95-.53-1.28-.76a3.24,3.24,0,0,1-.82-.73,7.16,7.16,0,0,0-.47-.66c-.49-.06-1.08-.16-1.64-.28-.17.17-.34.34-.53.5.31.4.59.81.89,1.21a4.65,4.65,0,0,0,1.59.31c.82-.11.51.09.51.09l.13.3c-.48-.09-1.21-.25-.91.13s1,.77,1,1a5.45,5.45,0,0,0,.21,1.4,1,1,0,0,1-.4-.3,76,76,0,0,1,4,6.58c.67-.13,1.75-.28,1.75-.28.32-.28.44-.47.22-.74a4,4,0,0,1-.7-1.35c0-.32,0-.86,0-.86.22-.57.52-.81.9-.84a4,4,0,0,0,1.49-.33c.22-.19,1.26-.8,1.26-.8,0-.75,0-1.51.27-1.81a4.15,4.15,0,0,0,.6-1c-.55-1.2-1-2.13-1.12-2.48a6.69,6.69,0,0,0-1-1.85c-.26-.2-.28-.28-.27-.31-.49.9-1.07,2.41-1.34,2.25a.57.57,0,0,0-.83.29c-.11.36-.09.36-.09.36-.76-.55-1.07-.52-1.35-1A9.93,9.93,0,0,0,344,68c-.25-.29-.23-.29-.23-.29a5.17,5.17,0,0,0,.39-2c-.52-.17-.73,0-.33-.37s.41-.48.28-1a5,5,0,0,1-.11-1.25l.12-.62c.5.29.69.15.74.13a6.05,6.05,0,0,0,.44-.44,4.41,4.41,0,0,1-.16-.71c-.55-.54-1.1-1.09-1.67-1.6a11.52,11.52,0,0,1-1.42,4.47"></path><path class="cls-2" d="M282.85,76.91c-.11.3-.2.63-.31.93.44-.14,1.48-.54,1.48-.54a4.13,4.13,0,0,0-1.17-.39"></path><path class="cls-2" d="M315.81,42c.39,0,.81,0,1.22,0a6.8,6.8,0,0,0-.93-.46c-.37.17-.51,0-1.05-.35s-2.73-1.3-3.11-1.72l-.48.13a13.68,13.68,0,0,1,4.35,2.4"></path><path class="cls-2" d="M302.27,94.29a90.43,90.43,0,0,1-23.85-3.17,136.37,136.37,0,0,0-2.82,13.51,100.33,100.33,0,0,0,26.67,3.57Z"></path><path class="cls-2" d="M295.29,39.17a24.06,24.06,0,0,1,3.74-.73c-1.49.11-2.95.28-4.4.5.22.08.44.14.66.23"></path><path class="cls-2" d="M290,42.78a4.74,4.74,0,0,0-1.58,2.58l.12-.07a.83.83,0,0,0-.15.24,3.93,3.93,0,0,0-.06.48,3.63,3.63,0,0,0,.26,1.3.34.34,0,0,1,.25,0,13.42,13.42,0,0,0,2.18-.82s.13-.46,0-.62a.24.24,0,0,1,0-.38,2.78,2.78,0,0,0,.61-1.18s.37-.15.53,0a3,3,0,0,0,1.51-.11s.72.11.88.36.25.27,1.21.51c0,0-1.83,1.09-2,1.15a8.94,8.94,0,0,0-1.69.94c-.14.17-.84.25-1.17.52s-.78-.35-.78-.35-.39.33-.28.55-.42.24-.47.46l-.26-.11c1,1.53,3.17,2.83,5.95,3.69-.18-.58-.1-.83-.3-1.35s-.34-.8-.76-1a3.87,3.87,0,0,0-1.54-.15c-.35-.43-.52-.55-.47-1s-.08-1,.76-1a3.41,3.41,0,0,0,1.23-.2c.37-.31.78-.61.78-.61-.61-.26-.57-.25-.24-.41s2.25-.9,2.25-.9c.17.27,1.09.6,1.09.6s.27.26.3-.12a5.13,5.13,0,0,0-.09-1s1.3-.23,1.78-.39.57.11.9.27a2.13,2.13,0,0,0,.67.21c-.94.34-1.46.53-1.08.61a2.61,2.61,0,0,1,.69.26c.42-.32,2.13-1,2.18-.65a2.63,2.63,0,0,0,.09,1,4.27,4.27,0,0,1,.21,1.92,3,3,0,0,0,.83.75c.38.16.81.38.81.81a3.75,3.75,0,0,0,.49,1.39,3.08,3.08,0,0,1-.76.41c-.43.16-.24.24,0,.51a3.25,3.25,0,0,0,1,.56.44.44,0,0,1,.25.28c3.8-.45,7-1.63,8.94-3.22h0a.41.41,0,0,1,.26-.21,4.49,4.49,0,0,0,1.73-3.3,4.45,4.45,0,0,0-1.66-3.23l-.05-.05c-2.43-2.17-7.18-3.65-12.64-3.65S292.46,40.57,290,42.75l0,0m20.73,1.37a.32.32,0,0,1,.3.44l-.54-.25c-.46-.19-.29-.24.24-.19m-.16.93c.49.3-.15.46-.58.38s0-.09-.18-.52c-.29.24-1,.11-1.39.06s-.7-.5-.57-.67,1.57-.22,1.57-.22a8,8,0,0,0,1.15,1M308,43.31c.4-.22.62-.46.73,0l.56.41a3.17,3.17,0,0,0-1.36.17c-.46.16-.34-.36.07-.58M291.21,44.5a4,4,0,0,1-.31,1,.53.53,0,0,0-.17.57.27.27,0,0,1-.26,0,4.92,4.92,0,0,0-1.34.22c-.68.3-.08-.3,0-.54s.18-.52.3-.57a1.85,1.85,0,0,0,.71-.44c.19-.24.41-.13,1.07-.25"></path><path class="cls-2" d="M274.36,105.14s0,0-.05,0c-.19-.05-1-.22-1.17.08a1.25,1.25,0,0,0-1.06.08c-.35.14-.39.26-.58,0a1.1,1.1,0,0,1-.22-.44c-.64-.28-.78-.2-.94-.15-.16-.16-.3-.35-.54-.24s-.32,0-.43-.13a3.16,3.16,0,0,1-.27-.45c.1-.16.4-.21.48-.1s.08.11.16.16a4.66,4.66,0,0,0,.66.14c.15,0,.29,0,.19-.22A57,57,0,0,1,258.42,98a2.09,2.09,0,0,0-.21.34c-.23.1-.32.71-.38,1s0,.6-.25.72c0,0-.18-.28-.35-.52a2.69,2.69,0,0,1-.19.67c-.13.3-.08.41-.07.9,0,0,0,0-.09.11s0,.35-.57.71a3.58,3.58,0,0,1,.35.35,1.89,1.89,0,0,0,1.12.41c.62.08.49,0,.62.24s.41.17.74.28.7.43.7.7.36.47.58.63.24.19.1.54c-.24.19.09.3-.16.68a4.89,4.89,0,0,1-.27,1.14,3.49,3.49,0,0,0-.25,1.09c0,.41.11.41-.22.9a1.53,1.53,0,0,0,.33.71c-.05.21,0,.27.28.54s.46.79.76,1.11.26.59.42.52.86,0,1.56-.11.6,0,.82.41a2.91,2.91,0,0,0,1.08,1.09c.43.07,1.23.08,1.31-.11s.6-.49.6-.49c0-.79-.24-.73.3-.82s1.37.23,2-.24,1.28-.27,1.66-.65.38-.19.38-.19c.22.16,0,.08-.13.38a9.09,9.09,0,0,0-.68,1.6c0,.11,0,.46.27.57.57.11.68,0,.9-.11s.24-.19.46-.21c.08-.33.19-.41.05-.74a1.37,1.37,0,0,1,.63.16c.24.3.62.82.9.85a.4.4,0,0,1,.27.16c.18-2.61.44-5.28.85-8.06l-.26-.08M267,103.82c-.16,0-.63-.06-.76-.09s-.3-.4-.36-.51-.11-.09-.35-.27.24-.08.33,0,.62.13.64.15a3.11,3.11,0,0,1,.47.56c.16.27.18.22,0,.19"></path><path class="cls-2" d="M277.58,90.88a61.93,61.93,0,0,1-9.77-3.73,1.31,1.31,0,0,0-.84.51,5.8,5.8,0,0,1-.87,1.2s-.08.44-.14.82,0,2.23,0,3.31-.28.66-.36,1.2-.2.75-.49.87c-.65.27-1-.33-.72-1.22a11.47,11.47,0,0,0-.22-2.26c-.09-.11.34-.89.34-1.26s-.28-1.33-.52-1.39a2.37,2.37,0,0,1-1.56-1.18c-.46-.89-.37-.17-1.22-.26s-.39.28-1-.31-.44.44-.44.44a2.76,2.76,0,0,1-1.39-1,.65.65,0,0,0-.25-.31,66.64,66.64,0,0,0-2.83,8.3c.59.5,1.22,1,1.87,1.49a2.55,2.55,0,0,0,.82.13c.65,0,.57.3.84.63s.21.33.13.48a50.94,50.94,0,0,0,7.47,4,1.64,1.64,0,0,1,.75-.37c-.23,0-1.06-.44-1.17-.87s.08-.52-.28-.71-1.41-.57-1.46-1-.39-.3-.76-.49a3.86,3.86,0,0,1-1.09-.55c-.38-.33-.68-.35-.9-.24a1.33,1.33,0,0,1-.7,0,2.64,2.64,0,0,1,1.08-.61c.17,0,.49.29.93.13s.87.1,1.28.35,2,1.79,2.28,2a11.34,11.34,0,0,1,1.44,1.44,2.93,2.93,0,0,1,.68.68c.79.43.88.88.88.88a7.69,7.69,0,0,0-2.05-.37l-.2,0c1,.41,1.94.8,2.95,1.17,0,0,0-.13-.05-.14.32-.14.32-.17.59,0a1.19,1.19,0,0,0,.66.24,1.16,1.16,0,0,1,.76.14,1.34,1.34,0,0,0,.87.32.53.53,0,0,1,.62.38l.12.27c.37.12.74.25,1.12.36.68-4.37,1.62-8.89,2.82-13.51"></path><path class="cls-2" d="M287.8,48.37a1.36,1.36,0,0,1,.42,0,4.8,4.8,0,0,1-.46-.94v0c-.4.19-.57.33-.43.54s.27.36.46.33"></path><path class="cls-2" d="M279.61,83.73q1.09-3.47,2.31-6.76h-.05c-.21.08-.52.19-.45.5a4.29,4.29,0,0,1-.77.2,1.73,1.73,0,0,0-.85.17c-.13.13-.57.11-.9.16a.69.69,0,0,0-.48.54,1.36,1.36,0,0,1-.52.76s.11.17.25.36.31.47.54.16c-.06.3-.23.33-.54.27s-.77-.21-1,0-.33.08-.6,0a.82.82,0,0,0-.5,0,3.25,3.25,0,0,0-1.09.43,1.72,1.72,0,0,0,0,.52c0,.17-.15.31-.42.42s-.28.27-.67.63a1.31,1.31,0,0,0-.26-.79,2.42,2.42,0,0,0,.08.65c.09.19-.08.57-.13.76s-.3.11-.47.49-.24.27-.51.06,0-.28,0-.49a2.37,2.37,0,0,1,.14-.6,5.5,5.5,0,0,1,.41-.65c.19-.25.13-.23-.09-.17s-.38.13-.4.36a1,1,0,0,1-.11.49,1,1,0,0,0-.08.3c0-.16-.19-.25-.54-.54,0,0,.34.75.39.91s-.15.39-.39.91c0,0,.11,0,.35.22s-.06.54-.22,1.39a12.25,12.25,0,0,1-1.06.8,15.48,15.48,0,0,1-1.91.74,61.11,61.11,0,0,0,8.65,3.22c.56-2.1,1.16-4.22,1.82-6.34"></path><path class="cls-2" d="M281.84,56.5c.22.33.6.92.44,1.31s-1-.33-1.14-.71-.71.11-1,.35a.52.52,0,0,1-.16-.3c0-.06,0-.1,0-.14a74.09,74.09,0,0,0-5.67,5.18,2.86,2.86,0,0,1,.37.89c.06.44.19.87.57.92a3.43,3.43,0,0,1,1.08.69c-1,.62-.69,1.39-.78,1.65s-.41,1-.25,1.2,0,1.08.52,1.2.43.17.43.17c.22-.17.56-.74,1-.74-.31-.39-.29-.47-.18-1s-.07-1.14.31-1.3l.86-.38a5.65,5.65,0,0,0,1.52-.65l.31-.15a14.7,14.7,0,0,0,.24-1.46c0-.61.19-.45-.05-.84s-.47-.44-.47-.44a5.13,5.13,0,0,0,1.14-.24c.36-.12.38-.63.38-.63a1.84,1.84,0,0,1,.36-1.14c.22-.27.93-1,.93-1,.27.21.78.79,1.16.62s.57,0,.57.22-.06,1,.27,1.16a3.57,3.57,0,0,0,.87.3c-.21.77-.16,1.61-.43,1.61a2.24,2.24,0,0,0-.84.44c1.14.54,1.05.29,1.58.27a4,4,0,0,0,1.25-.38,9.33,9.33,0,0,0,.74-.76,1,1,0,0,1,.26.39,55.39,55.39,0,0,1,6.51-10.18,14.67,14.67,0,0,1-4.7-2.37c-.62.33-1.24.71-1.86,1.08l.08.09c0,.17.16.17.38.27a2.56,2.56,0,0,1,.95.85,10.24,10.24,0,0,0,.52,1.11.78.78,0,0,1,.16.63,15.58,15.58,0,0,0,.08,1.77.71.71,0,0,0,.3.51c.27.17.68.5.68.5-.13.43-.24.54-.46.54s-.54.37-.76.57-.33.24-.41,0a6.3,6.3,0,0,0-.38-.82l-.3-.57a1,1,0,0,1-.57,0,2.91,2.91,0,0,1,0,1.12c-.08.08-.13.31,0,.36a6.51,6.51,0,0,1,.68.43c-.06.35-.46.84-.41,1.08s-.22.62-.22.62c-.3.39-1,.5-1,.39-.44-.52-.6-.63-.76-.65s-.49-.45-.73-.6-.25-.33-.33-.49-.25-.68-.46-.79a9,9,0,0,0-1.06-.46c-.17,0-.33-.38-.33-.38L283.4,57a.77.77,0,0,0,.54-.32c.08-.14,0-.2.27-.12s.84.47,1,.36a.51.51,0,0,1,.44,0c0-.3-.22-.57.05-.65s.79-.33.79-.33l.51-.37a7.84,7.84,0,0,1-.26-1.51l-.11-1.27c-.17-.28-.25-.36-.49-.37-.51.33-1,.67-1.54,1a1.24,1.24,0,0,1-.55.79,2.45,2.45,0,0,0-.88.62.58.58,0,0,1-.66.1c-.32.24-.65.47-1,.72.06.16.08.6.27.76M285.46,55c.19,0,.22-.08.3-.27s.54-.33.54-.33l.14.3-.32.43a1.86,1.86,0,0,0-.78,0c-.22.06-.07-.1.12-.13"></path><path class="cls-2" d="M281.8,54.49c-.31-.15-.68-.24-.83-.06a2.88,2.88,0,0,1-1,.56,1.45,1.45,0,0,1-.47,1.08c-.66-.3-.83-.27-1.09-.06a2.09,2.09,0,0,1-.9.25,2.61,2.61,0,0,0-1.06.64c-.65.09-1.17.13-1.17.13-.49.56-.71,1.24-1,1.18s-.74,1.15-.74,1.15c.37,0,.22.16.06.46s-.82,1.13-.82,1.13c.8-.15.93,0,1.16.44a74.28,74.28,0,0,1,7.88-6.9"></path><path class="cls-2" d="M348.55,67.23v0"></path><path class="cls-2" d="M312.38,39.48a19.5,19.5,0,0,0,3,1.25c.54.11,1.57.73,2.06.57s.76-.08,1.25.35c.21.19.2.29.1.33l1.21.07c-.25-.2-.46-.38-.57-.48s-1.09-.57-1.25-1a1.61,1.61,0,0,0-.55-.46c-1.46-.38-2.94-.69-4.44-1-.31.06-.62.12-.92.2a.67.67,0,0,1,.14.09"></path><path class="cls-2" d="M310.11,39.17a8.84,8.84,0,0,1,.95-.32,51.11,51.11,0,0,0-5.71-.51,26.05,26.05,0,0,1,4.76.83"></path><path class="cls-2" d="M289.6,42a13.52,13.52,0,0,1,4.34-2.4,12.28,12.28,0,0,0-1.29-.34,56.69,56.69,0,0,0-11,3.29A31,31,0,0,1,289.6,42"></path><path class="cls-2" d="M317.88,42c.15,0,.29,0,.45,0a2.42,2.42,0,0,1-.36-.1l-.09.1"></path><path class="cls-2" d="M277.42,45c-.09,1.09-.63,2.27-.58,2.82a.91.91,0,0,1-.16.75c-.74,0-.92.17-.65.5l.26.32h0c.35-.16.69-.29,1-.44H277s.14-.52.22-.73.13-.41.3-.47a1.45,1.45,0,0,0,.62-.73c0-.22.28-.35.81-.64,0,0,.85-.2,1.1,0s.69.09,1.12,0,.45.4.45.4a2.43,2.43,0,0,1,.48.27l.05,0a.32.32,0,0,1,.16-.3c.17-.11.37,0,.56.08a42.19,42.19,0,0,1,4.62-1.19v0h0c-.14.16-.19,0,.06-.32.11-.16-.69-.41-.3-.52a3.13,3.13,0,0,0,.49-.2,5.29,5.29,0,0,1,1-1.76,33.51,33.51,0,0,0-11.4,1.67c-.15.08-.32.15-.48.24l.55.22m8.61-.61c.33-.13.08-.07.39.22a4.35,4.35,0,0,0-.69,0c-.38,0,0-.08.3-.22M283.37,44c0-.16.18-.18.18-.2a4.7,4.7,0,0,0,1,.05,1,1,0,0,0,.45.24c.16.05.16.16-.05.19a4.2,4.2,0,0,1-.8,0,1,1,0,0,0-.67,0c-.31.08-.09-.11-.11-.28m-.68,1.47c.43-.27.35-.41.48-.46a2.29,2.29,0,0,0,.55-.3.45.45,0,0,1,.6.19c.08.14.58.34.58.34s.51-.07.37.15a5.9,5.9,0,0,1-.37.63.78.78,0,0,1-.39.19,1.55,1.55,0,0,0-.48.2c-.35-.27-.58-.42-.8-.37s-.27-.08-.41-.19-.57-.11-.13-.38M278.85,45c.22-.25.44-.3.52-.25a1.14,1.14,0,0,0,.73-.16,2.4,2.4,0,0,1,.74-.16.79.79,0,0,0,.62-.19c.22-.25.3,0,.53.29a2.17,2.17,0,0,1-.36.8c-.22.19-.22.24-.25.59a1.44,1.44,0,0,0-.41,0,.88.88,0,0,1-.57-.06c-.13-.11-.3-.11-.65-.05,0,0-.43.05-.54-.06a.6.6,0,0,0-.66-.05l-.26,0,.56-.66"></path><path class="cls-2" d="M349.37,109.85l0-.43c-.83-.17-1.22,0-1.39.41a3,3,0,0,1-.87.85,7.12,7.12,0,0,0-1.53-1.26,13.54,13.54,0,0,0-2.17,1.48c-.52.49-2.07,2.45-2.4,2.61-.81-.33-1,0-1.4.34-.79.63-1.12.84-1.39.79s-.76.38-1,.71a.84.84,0,0,1-.88.38c-.38-.06-1.68.08-2.06-.41a4.11,4.11,0,0,0-1.55-.9l-1.06-.36c.09,1.32.19,2.66.22,3.93a59.3,59.3,0,0,0,17.49-8.14"></path><path class="cls-2" d="M317.89,45.66c.65.12,1.36.29,2.09.47a10.85,10.85,0,0,0,1.46-.4,1,1,0,0,1,1.33.33c.22.43.44.49.54.81a.18.18,0,0,1-.07.21c.79.26,1.61.57,2.44.88a2.9,2.9,0,0,0-.71-.44c-.24-.05-1.11-1.11-1.36-1.19s-.38-.61,0-.54-.27-.57-.54-.52-1.3-.38-1.63-.35-.3-.38.14-.68.78.27,1.22.38,0-.57-.47-.57-.81-.77-1.05-1l-.06,0a28.36,28.36,0,0,0-4.57-.2,5,5,0,0,1,1.24,2.81"></path><path class="cls-2" d="M344.34,59.5l.55.51c-.26-.34-.32-.49-.55-.51"></path><path class="cls-2" d="M330,131.23a100,100,0,0,1-21.57,3.39,4,4,0,0,1-1.11.88c-.46.16-.63.6-.93.84a1.65,1.65,0,0,0-.54.65,5.13,5.13,0,0,1-1.2,1.06,1.43,1.43,0,0,1-.24.76c0,.3.11.28.05.58a2.63,2.63,0,0,1-.11.79,2.09,2.09,0,0,0-.16,1.17l-.44.65a2,2,0,0,0-.6.81v.1a90.84,90.84,0,0,0,24.05-3.21,33.69,33.69,0,0,0,2.8-8.47"></path><path class="cls-2" d="M302,144.53a1.65,1.65,0,0,0-1,.57s-.59.19-.81.05a1,1,0,0,0-.81,0,1.21,1.21,0,0,1-1,0l-.59.3c-.11.06-.66.25-.82.3a2,2,0,0,0-.76.3,1.87,1.87,0,0,1-.95.36,1.28,1.28,0,0,1-.41.35.76.76,0,0,0-.42.35,1.25,1.25,0,0,0,.07.79c.05.16.19.08,0,.51l-.34.26a57.86,57.86,0,0,0,8,.72v-5.4a1.24,1.24,0,0,0-.23.46"></path><path class="cls-2" d="M322.31,146.22a20.64,20.64,0,0,0,4.35-5.47,92.43,92.43,0,0,1-23.53,3v5.73h.12a56.67,56.67,0,0,0,19.06-3.3"></path><path class="cls-2" d="M252,93.86c.08.55.24.66-.08,1.36.05.33.21.51.35,1a6.91,6.91,0,0,0,.6,1.22,3.51,3.51,0,0,0,.84.21c.12-.61.24-1.22.39-1.84.07-.32.17-.64.26-1A27.74,27.74,0,0,1,252,92.49l0,.07a7.55,7.55,0,0,0,0,1.3"></path><path class="cls-2" d="M349.18,125.76a3,3,0,0,0,.87-1.6,2.82,2.82,0,0,1,.49-1.63,2.3,2.3,0,0,0,.41-1c-.08-.23-.14-.4-.18-.55a41.48,41.48,0,0,1-2.79,6.64c.21-.26.43-.51.63-.78a3.22,3.22,0,0,1,.57-1.07"></path><path class="cls-2" d="M350.9,117c-.29-.16-.41-.43-.8-.89s-1.2-1.7-1.2-1.7a3.89,3.89,0,0,0,.48-2c0-.09.09-1.22.09-1.22l0-.35a61.67,61.67,0,0,1-17.55,8c0,2.33,0,4.59-.21,6.72-.13,1.53-.33,3-.57,4.4,2.1-.64,4.14-1.32,6.06-2.09A46.61,46.61,0,0,0,350,120.4c.35-1.12.63-2.27.88-3.43"></path><path class="cls-2" d="M330.17,130.26c.27-1.51.5-3.08.64-4.76.18-2,.22-4.18.21-6.39a104.24,104.24,0,0,1-27.89,3.74v6.36a1.56,1.56,0,0,0,.36-.05c.38-.11.65.06,1.09.3s1.55.95,1.9,1.14a1.16,1.16,0,0,0,1,.25c.38-.11,1.09.11,1.11.06a1.78,1.78,0,0,1,.52,1.62,7.94,7.94,0,0,1-.2,1.2,97.77,97.77,0,0,0,21.28-3.47"></path><path class="cls-2" d="M349.46,122a49.53,49.53,0,0,1-12,6.7c-2.07.83-4.28,1.57-6.57,2.24a35.83,35.83,0,0,1-2.61,8.45,48.35,48.35,0,0,0,16.52-8.19,40.51,40.51,0,0,0,4.63-9.2"></path><path class="cls-2" d="M324.3,145.46a56.69,56.69,0,0,0,17.58-11.16,55,55,0,0,1-14.09,6.13,22.82,22.82,0,0,1-3.49,5"></path><path class="cls-2" d="M330.73,112.7a1.43,1.43,0,0,0-.18-.15c-.52-.33-1.31-.69-1.53-1.13s-1.49-1-1.7-1.09-.13-.43-.13-.65a2.65,2.65,0,0,1,.13-.61,6.81,6.81,0,0,0-1.09-1,4.31,4.31,0,0,1,.86-1.36c0-.17,0-.35,0-.53a102.15,102.15,0,0,1-23.91,2.85V122A104.27,104.27,0,0,0,331,118.24c0-1.8-.14-3.66-.28-5.54"></path><path class="cls-2" d="M335.33,70.17c-.19-.19-.62,0-.87,0,0,0-.12.38-.23.79.41-.25.79-.52,1.17-.78,0,0-.06,0-.07-.06"></path><path class="cls-2" d="M335.8,68.76a1.41,1.41,0,0,0,.75.61l.5-.38-.06-.08c-.32-.41-.66-.8-1-1.19l-.2-.07c-.48.57-.46.65,0,1.11"></path><path class="cls-2" d="M328.23,92.67c.3-.38.61-.71.61-.71l.79-1.42a1.6,1.6,0,0,1-.05-.21l-1.77.56c.15.6.27,1.18.42,1.78"></path><path class="cls-2" d="M337.45,69.72l.2.08-.11-.16-.09.08"></path><path class="cls-2" d="M337.64,68.33l0,0,.06.07a.46.46,0,0,1,.07-.07l-.16,0"></path><path class="cls-2" d="M290.9,122.19c.27.13.93.37,1.06.82a2.56,2.56,0,0,0,.46,1c.22.27.82.44.44.77a10.47,10.47,0,0,0-1,1.24c-.95.55-.29.6-.26.81s-.06.39.18.63c.28-.46.25.06.43-.85s.55-.37.82-.26,1.27.5,1.48.39c0,0-.66,1-1.2,1.1a3.07,3.07,0,0,1-1,0,.92.92,0,0,0,.8.59.86.86,0,0,0,.86-.33c.33-.33.44-.95,1-1a3,3,0,0,1,1.63.24,18.87,18.87,0,0,1,2.5.92,1.94,1.94,0,0,0,1.36.49,4.54,4.54,0,0,1,1.83.22v-6.15a113.2,113.2,0,0,1-11.37-.66"></path><path class="cls-2" d="M322.53,76.9a74.19,74.19,0,0,1-19.39,2.58V93.42a90.9,90.9,0,0,0,23.63-3.11c-.56-2.1-1.16-4.2-1.82-6.32-.76-2.43-1.57-4.8-2.42-7.09"></path><path class="cls-2" d="M303.13,108.2A101.34,101.34,0,0,0,327,105.36a10.15,10.15,0,0,1,.14-1.55,6.78,6.78,0,0,0-1.31-2.45c.54-2.76.3-2.76.62-3.31a10.65,10.65,0,0,0,.52-2.64,8.55,8.55,0,0,1,.65-1.71c-.21-.86-.38-1.7-.61-2.57a90.72,90.72,0,0,1-23.84,3.16Z"></path><path class="cls-2" d="M341,72.87a1.61,1.61,0,0,0-.65-.87c.26.37.5.76.76,1.14a1,1,0,0,1-.11-.27"></path><path class="cls-2" d="M254.88,98.24s.75.08.94-.87a2.51,2.51,0,0,0,.43-.9s0,0,0,0c-.41-.31-.84-.62-1.22-1-.05.18-.11.35-.15.53-.13.56-.23,1.12-.34,1.68.12.07.19.21.32.54"></path><path class="cls-2" d="M287.71,47.32a4.92,4.92,0,0,1-.18-.78l-.1,0Z"></path><path class="cls-2" d="M316.2,49.66c1.08.59,2.15,1.24,3.21,1.92a8.69,8.69,0,0,1-1.18-2.31c-.13-.55-.43-.24-.19-.71a3.69,3.69,0,0,0,0-2l-.16,0a5.33,5.33,0,0,1-1.67,3.12"></path><path class="cls-2" d="M275.94,113.86a5.2,5.2,0,0,1,1,.69,5.26,5.26,0,0,1,1.29.09c.4,0,.54.16.76,0,.41.17.44.06.54.25a.75.75,0,0,0,.47.41,7.59,7.59,0,0,1,1.16.68.94.94,0,0,0-.09.87c.11.14.42.13.64.19a2.23,2.23,0,0,1,.73.32,7.93,7.93,0,0,0,.71.71c.25.16.82.44.82,1s.87,1,.87,1a3.89,3.89,0,0,1,1.08,0c.41.08,1,0,1.25,0s.66-.08,1,.35a2.8,2.8,0,0,1,1.34.59,113.32,113.32,0,0,0,12.72.81V109.07a101.3,101.3,0,0,1-25.2-3.21c-.11.07-.45.28-.61.25s-.14-.2-.49-.12-.24-.27-.3-.38,0-.08,0-.1l-.2,0c-.41,2.8-.66,5.5-.84,8.13a1.42,1.42,0,0,1,.59.14c.3.16.46,0,.73.12"></path><path class="cls-2" d="M310.81,52.64c4.09,4.82,8.53,13.27,12.26,23.21a49.55,49.55,0,0,0,6.21-2.25c-.34-.92-.79-2.14-.87-2.3-.45-.12-.92.07-.87-.69-.91.09-1.26-.11-1.48.11-.54-.22-.79-.36-.6-.79s1.43-.67,1.43-.67l-.83-.92a6.5,6.5,0,0,1,.95-.23c.33,0,.33-.6.28-1s-.36-.3,0-.93a3.29,3.29,0,0,0,.05-2.23c-.13-.57.14-.71.53-1,0,0-.46-1.37-.57-1.78A3.22,3.22,0,0,0,326,59.93c-.43-.22-.3-.71-.1-1.38l.69,1s0,0,.34,0,.18,0,.19.51.35.71.71.93a3.94,3.94,0,0,0,.89-.44.92.92,0,0,1,.59-.13l-.81-.74s0,.07-.08.09c-.41.29.17.43,0,.53s-.88-.8-1.05-1.27-1.54-1-1.84-1.33-.44-.6-1-.6c-.25-.14-.43-.15-.25.32s0,.6.25,1.2-.22.55-1.13.33a17.06,17.06,0,0,0-1.48-1.42c-.68-.54-1.36-3.21-1.42-3.75a2.93,2.93,0,0,0-.07-.48,56.29,56.29,0,0,0-4.92-3,14.73,14.73,0,0,1-4.71,2.37m11.36,14.6a1.67,1.67,0,0,0-.81.6c-.11.24-.74.55-.74.55-.46-.31-.49-.36-.35-.63a4.54,4.54,0,0,0,.18-1.07c-.59.17-.43.12-.67-.1s-.41-.46-.11-.6a1.08,1.08,0,0,0,.43-.34c-.08-.37-.53-1.17-.22-1l.35.17c-.1-.38.12-.46.36-.54s.9.54.9.54a.58.58,0,0,0,0,.68,3.94,3.94,0,0,0,.44.87c.13.16.51.76.24.87m-2-6.36.14.79c.16.13.49-.3,1-.33.21,0,.56,1.06.44,1.7h.53a2.19,2.19,0,0,1,.87.25,3.92,3.92,0,0,1,.79.49,1.88,1.88,0,0,0,.72.42,1,1,0,0,1,.57.87c0,.14.5.09,1,0a7.73,7.73,0,0,0,.59,1.47A2.4,2.4,0,0,1,326,67a1.25,1.25,0,0,0-.7.79,1.1,1.1,0,0,1-.66.54c-.21.08-.46.27-.65.24.22-.32.16-.4.16-.73s.25-.57-.05-.68-.3-.46-.43-.3a4.32,4.32,0,0,1-.41.38.39.39,0,0,1-.11-.6,1.65,1.65,0,0,0,.33-.87c0-.19-.14-.35-.31-.57a4.62,4.62,0,0,0-.65-.62c-.14-.13-.09-.42-.13-.55a1.44,1.44,0,0,0-1.14,0c-.28.11-.41.08-.55-.22s-.76-1-.9-1.25-.43-1.07-.43-1.07Z"></path><path class="cls-2" d="M322.47,47.76l-.33-.1,0,0,.37.08"></path><path class="cls-2" d="M338.54,71.54a1,1,0,0,1-.73-.19l-.68,0a1.1,1.1,0,0,1-.6-.24,4.3,4.3,0,0,0-.43-.34A34.35,34.35,0,0,1,332.45,73a12.2,12.2,0,0,1,.66,1.46s-.51,1-.7,1.35,0,.7,0,1.16a1.73,1.73,0,0,0,.38.92l.29.31a4.48,4.48,0,0,0,0,.89,4,4,0,0,1-.42,1.76,2.22,2.22,0,0,1-1.05.58c-.7.19-.65.63-.65.63a.63.63,0,0,1-.26.49,5.27,5.27,0,0,1-1.21-.7c-.36-.36-1.19.37-1.61.57,0,0-.24-.91-.35-1.18s-.21-.44-.57-.44-.32-.4-.32-.65a23.65,23.65,0,0,0-.58-2.31,2,2,0,0,0-.68-1c-.21-.15-.08-.55.06-.85-.67.23-1.35.44-2.05.65.85,2.3,1.66,4.67,2.42,7.09.66,2.13,1.26,4.24,1.82,6.34.61-.18,1.2-.37,1.79-.56a9.94,9.94,0,0,1,0-2,1.45,1.45,0,0,1,.3-1.09,2.24,2.24,0,0,0,.82-1.79c-.06-.93,0-1.72.65-1.58a2.16,2.16,0,0,0,1.63-.27,2.51,2.51,0,0,0,1.14-1.2,4.05,4.05,0,0,1,1.47-2,17.05,17.05,0,0,1,2.48-1.84,2.11,2.11,0,0,0,1-.93c.2-.3.14-.36.14-.36.38.14.72.16.83-.22.17,1.29.11,1,.56,1.32s.48.51.46.84,0,1.24,0,1.24a1.7,1.7,0,0,0,1.53.12c.24-.08,1-.38,1.47-.5q-1.2-2.18-2.56-4.29c-.28,0-.6-.15-.79,0a.24.24,0,0,1-.38-.27c.08-.16.24-.16.38-.4a1.75,1.75,0,0,1,.16-.25c-.56-.84-1.13-1.67-1.73-2.49a.85.85,0,0,0-.39,0m-4.24,5.22c-.16-.11-.52-.08-.35-.27s.2-.41.38-.06c0,0,.13.44,0,.33m3.38-1.41c-.19.44-.39-.47-.47-.68a2.29,2.29,0,0,0-.79-.85c-.24-.11-.15-.25-.11-.49a1.76,1.76,0,0,0-.05-.62,6.18,6.18,0,0,0-.63-.49c-.21-.14,0-.49-.08-.79s.28.3.35.49a.77.77,0,0,1,.31.52c0,.32.38.65.48.78s.41.25.55.63.37.42.61.72,0,.34-.17.78"></path><path class="cls-2" d="M340.85,59.25c.33.39.14.78.52.81a.53.53,0,0,1,.57.46c.08.3.65.72,0,.63a1,1,0,0,1-.92-.82c-.47.36-.69.15-.9-.12,0,1,0,1.32.35,1.48a3.21,3.21,0,0,1,.93,1.5,2,2,0,0,0,.18.38,10.64,10.64,0,0,0,1.1-4H342a8,8,0,0,0-.8-1.66l-.54-.43c0,.74-.08,1.4.2,1.74"></path><path class="cls-2" d="M261.91,123.67c.06-.28,0-.46-.46-.94a6.48,6.48,0,0,0,0-1.17c-.09-.44.37-.39.37-.83a.58.58,0,0,1,.62-.65.94.94,0,0,0,1-.74c.16-.58.57-.65.9-.44s.38,0,1-.73a.83.83,0,0,1-.68-.35c-.35-.4,0-1.67.1-2.17A48.69,48.69,0,0,1,253.55,109a41.88,41.88,0,0,0,1.83,11.4,40.35,40.35,0,0,0,5.7,4,.47.47,0,0,1,.37-.15c.43,0,.41-.32.46-.6"></path><path class="cls-2" d="M268.17,135.72c-.49-.55-.94-.57-1.23-.88s-.73-.8-.73-1a2.47,2.47,0,0,0-.65-1.23,1.54,1.54,0,0,1-.55-1.06c0-.43-.3-.68-.62-1.17s-.44-.51-.49-.95-.06-.52-.76-1.44a19.61,19.61,0,0,0-1.73-2,.89.89,0,0,1-.22-.53,41.12,41.12,0,0,1-5.23-3.43,42.07,42.07,0,0,0,2.33,5.29,56.22,56.22,0,0,0,5.56,6.19,44.58,44.58,0,0,0,4.71,2.58l-.39-.42"></path><path class="cls-2" d="M261.48,113a3.18,3.18,0,0,1-.25-.46c-.05-.16-.24-.24-.52-.38a2.34,2.34,0,0,1-.89-.62A5.28,5.28,0,0,1,259,110c0-.32-.54-.79-.54-.79,0,.36,0,.55-.17.39s-.51-.33-.43-.63a5,5,0,0,0,0-1c-.34-.68-1.22-3.09-1.22-3.09-.48,0-.58.14-.74-.13a5.12,5.12,0,0,0-1.13-1.16c-.38-.25-.54-.76-.82-1.06l-.19-.26a51.59,51.59,0,0,0-.29,5.66,43.08,43.08,0,0,0,8.29,5.43c-.18-.25-.31-.33-.35-.42"></path><path class="cls-2" d="M252.62,107.13a51.39,51.39,0,0,1,.5-6.24c-.13-.31-.24-.61-.24-.61l-1-1c-.83.23-.83.12-1-.1s-.79-.79-.87-1a3.26,3.26,0,0,1-.36-.68,4.14,4.14,0,0,0-.6-1,8.89,8.89,0,0,0-.73-1.31,4,4,0,0,1-.6-1.08,3.55,3.55,0,0,1-.41-.85c-.08-.32-.05-.68-.21-.81S247,92,247,92s.14.13,0-.09c0-.06,0-.15,0-.22,0,.73-.11,1.45-.11,2.18a53.52,53.52,0,0,0,.34,5.83,22,22,0,0,0,5.44,7.41"></path><path class="cls-2" d="M262.15,113.54c.75.38,1.52.75,2.31,1.1l-.14-.35c-.23-.49-.35-.82-.18-1s.19,0,0-.32a4.5,4.5,0,0,0-.88-.81,10.18,10.18,0,0,0-1,.4c-.17.11-.17.08-.17.08a1.12,1.12,0,0,1,.26.74s-.1.09-.21.12"></path><path class="cls-2" d="M253.39,119.78c.67,1.25,1.38,2.47,2.14,3.65-.32-.82-.66-1.65-.93-2.49-.43-.38-.81-.77-1.21-1.16"></path><path class="cls-2" d="M273.27,140.93a1.09,1.09,0,0,1-.07-.24c-.09-.6-.41-.79-.55-1.14s-.49-.6-.59-.87a1,1,0,0,0-.14-.19,53.83,53.83,0,0,1-5.19-2.33,57,57,0,0,0,6.54,4.77"></path><path class="cls-2" d="M252.61,108.22a25.4,25.4,0,0,1-5.11-6A54.67,54.67,0,0,0,252,117a26.53,26.53,0,0,0,2.13,2.29,43.48,43.48,0,0,1-1.52-11.11"></path><path class="cls-2" d="M353.34,76.08a15.06,15.06,0,0,1,1.44,1.77c.32.54.64.88,1.13.94s1,1.31,1,1.75a2.59,2.59,0,0,0,.59,1c0-.14,0-.27,0-.41s0-.28,0-.42c-.34-.94-.7-1.86-1.09-2.77-.38-.16-.86-1.15-.94-1.37a1.24,1.24,0,0,0-.91-1,5.64,5.64,0,0,1-1.83-1.16c.1.31,0,.43-1-.46l0,0c.35.4,1.2,1.58,1.59,2"></path><path class="cls-1" d="M418,42.63c-12.33,0-21.77,5.22-26.54,13.4V44.43H349.15V56.75a59.85,59.85,0,0,1,0,74.36v43.73h42.26V131.67c5.22,8.18,14.21,13.49,26.54,13.49,25.72,0,44.15-18.89,44.15-51.26S443.67,42.63,418,42.63m-12.14,69.7c-7.65,0-13.68-6.29-13.77-18.43s6.12-18.53,13.77-18.53c8.27,0,14,5.57,14,18.53,0,12.77-5.76,18.43-14,18.43"></path><path class="cls-1" d="M242.31,93.93a59.63,59.63,0,0,1,14.28-38.8V13H214.32V56c-5.22-8.18-14.21-13.4-26.45-13.4-25.72,0-44.25,18.8-44.25,51.27s18.53,51.26,44.25,51.26c12.24,0,21.68-5.31,26.45-13.49v11.69h42.27V132.73a59.67,59.67,0,0,1-14.28-38.8m-42.39,18.4c-8.27,0-14-5.58-14-18.43s5.76-18.53,14-18.53c7.74,0,13.77,6.38,13.77,18.53s-6.12,18.43-13.77,18.43"></path><path class="cls-3" d="M24.78,192.72A7.14,7.14,0,0,1,21.5,192a8.67,8.67,0,0,1-2.62-2,9.62,9.62,0,0,1-1.72-2.87,9.12,9.12,0,0,1-.6-3.25,9.56,9.56,0,0,1,.59-3.32,9.32,9.32,0,0,1,1.68-2.84,8.28,8.28,0,0,1,2.57-2,7.33,7.33,0,0,1,3.24-.73A7.5,7.5,0,0,1,28.87,176a7,7,0,0,1,2.46,2.75l-1,.62a5.65,5.65,0,0,0-2.36-2.51,7,7,0,0,0-3.32-.78,5.92,5.92,0,0,0-2.81.66,6.76,6.76,0,0,0-2.15,1.75A7.83,7.83,0,0,0,18.29,181a8.59,8.59,0,0,0-.47,2.84,8,8,0,0,0,.54,2.94,8.33,8.33,0,0,0,1.51,2.47,7,7,0,0,0,2.25,1.7,6.25,6.25,0,0,0,2.74.62,6.56,6.56,0,0,0,3.21-.83,9.7,9.7,0,0,0,2.89-2.6v1.4a7.79,7.79,0,0,1-6.18,3.19m5.91-7.63h-4v-1h5.06v8.53H30.69Z"></path><path class="cls-3" d="M35.48,192.6V175.06h7.29a4.4,4.4,0,0,1,2.06.47,5.42,5.42,0,0,1,1.61,1.24,6.2,6.2,0,0,1,1.06,1.74,5.48,5.48,0,0,1,.38,2,5.76,5.76,0,0,1-.52,2.45,5.13,5.13,0,0,1-1.44,1.9,4.31,4.31,0,0,1-2.16.94l4.37,6.82H46.67L42.42,186H36.74v6.62Zm1.26-7.78h6.15a3.26,3.26,0,0,0,2-.62,4,4,0,0,0,1.29-1.61,4.88,4.88,0,0,0,.46-2.1,4.49,4.49,0,0,0-1.94-3.69,3.4,3.4,0,0,0-2-.61h-6Z"></path><path class="cls-3" d="M58.58,192.72a7.54,7.54,0,0,1-3.51-.74,6,6,0,0,1-2.25-2,8.82,8.82,0,0,1-1.21-2.86,13.91,13.91,0,0,1-.37-3.23v-8.82H52.5v8.82a13.21,13.21,0,0,0,.3,2.81,7.65,7.65,0,0,0,1,2.48,4.9,4.9,0,0,0,1.86,1.75,6.09,6.09,0,0,0,2.92.64,5.83,5.83,0,0,0,3-.67,5.08,5.08,0,0,0,1.86-1.76,7.76,7.76,0,0,0,1-2.47,13.66,13.66,0,0,0,.28-2.78v-8.82h1.26v8.82a14,14,0,0,1-.38,3.34,8.16,8.16,0,0,1-1.24,2.83A6.07,6.07,0,0,1,62,192a7.35,7.35,0,0,1-3.41.72"></path><path class="cls-3" d="M70.19,192.6V175.06H77.4a4.37,4.37,0,0,1,2,.47,5.47,5.47,0,0,1,1.62,1.24,5.8,5.8,0,0,1,1.07,1.74,5.28,5.28,0,0,1,.38,2,5.7,5.7,0,0,1-.63,2.66,5.53,5.53,0,0,1-1.73,2,4.38,4.38,0,0,1-2.6.79h-6.1v6.62Zm1.26-7.78h6a3.3,3.3,0,0,0,2-.62,3.91,3.91,0,0,0,1.28-1.61,5,5,0,0,0,.45-2.1,4.43,4.43,0,0,0-.53-2.13,4.29,4.29,0,0,0-1.41-1.57,3.35,3.35,0,0,0-1.94-.6h-5.9Z"></path><path class="cls-3" d="M92.52,192.72a7.41,7.41,0,0,1-3.34-.75,8.25,8.25,0,0,1-2.59-2,9.29,9.29,0,0,1-1.68-2.85,9.43,9.43,0,0,1,0-6.62,9.31,9.31,0,0,1,1.75-2.84,8.68,8.68,0,0,1,2.61-2,7.41,7.41,0,0,1,3.25-.73,7.25,7.25,0,0,1,3.35.77,8.16,8.16,0,0,1,2.58,2.05,9.49,9.49,0,0,1,1.68,2.86,9,9,0,0,1,.6,3.22,9.29,9.29,0,0,1-.62,3.37A9.48,9.48,0,0,1,98.39,190a8.34,8.34,0,0,1-2.62,2,7.4,7.4,0,0,1-3.25.72m-6.94-8.89a8.33,8.33,0,0,0,2,5.36,7.12,7.12,0,0,0,2.2,1.73,6.1,6.1,0,0,0,2.8.64,6,6,0,0,0,2.84-.67,6.91,6.91,0,0,0,2.2-1.78,8.11,8.11,0,0,0,1.4-2.48,8.41,8.41,0,0,0,.48-2.8,8.26,8.26,0,0,0-.51-2.89,7.71,7.71,0,0,0-1.44-2.47,7.13,7.13,0,0,0-2.21-1.73,6,6,0,0,0-2.76-.65,6.15,6.15,0,0,0-2.86.67,6.9,6.9,0,0,0-2.19,1.78A8.81,8.81,0,0,0,86.08,181a8,8,0,0,0-.5,2.81"></path><path class="cls-3" d="M110.48,192.6V175.06h5.83a8.48,8.48,0,0,1,4.63,1.17,7.44,7.44,0,0,1,2.77,3.16,10.46,10.46,0,0,1,.92,4.41,10.15,10.15,0,0,1-1,4.65,7.42,7.42,0,0,1-2.89,3.06,8.62,8.62,0,0,1-4.42,1.09Zm12.89-8.8a9.06,9.06,0,0,0-.82-3.93,6.42,6.42,0,0,0-2.4-2.7,7.16,7.16,0,0,0-3.84-1h-4.57v15.27h4.57a7.11,7.11,0,0,0,3.88-1,6.46,6.46,0,0,0,2.38-2.76,9.23,9.23,0,0,0,.8-3.89"></path><polygon class="cls-3" points="139.78 191.46 139.78 192.6 128.09 192.6 128.09 175.06 139.55 175.06 139.55 176.19 129.35 176.19 129.35 183.09 138.27 183.09 138.27 184.17 129.35 184.17 129.35 191.46 139.78 191.46"></polygon><rect class="cls-3" x="149.56" y="175.06" width="1.26" height="17.54"></rect><polygon class="cls-3" points="156.67 177.4 156.67 192.6 155.41 192.6 155.41 175.06 156.45 175.06 168.68 190.5 168.68 175.06 169.94 175.06 169.94 192.6 168.7 192.6 156.67 177.4"></polygon><polygon class="cls-3" points="173.91 175.06 180.58 191.01 187.25 175.06 188.59 175.06 181.2 192.6 179.99 192.6 172.58 175.06 173.91 175.06"></polygon><polygon class="cls-3" points="202.96 191.46 202.96 192.6 191.28 192.6 191.28 175.06 202.74 175.06 202.74 176.19 192.54 176.19 192.54 183.09 201.46 183.09 201.46 184.17 192.54 184.17 192.54 191.46 202.96 191.46"></polygon><path class="cls-3" d="M216.4,178a5.32,5.32,0,0,0-.94-.83,5.87,5.87,0,0,0-1.11-.59,7.69,7.69,0,0,0-1.28-.36,8.73,8.73,0,0,0-1.49-.12,5.82,5.82,0,0,0-3.74,1,3.26,3.26,0,0,0-1.17,2.63,2.77,2.77,0,0,0,.53,1.77,3.61,3.61,0,0,0,1.67,1,22.85,22.85,0,0,0,2.94.77,21.28,21.28,0,0,1,3.28.92,5.1,5.1,0,0,1,2.14,1.45,3.74,3.74,0,0,1,.75,2.46,4.41,4.41,0,0,1-.44,2,3.87,3.87,0,0,1-1.29,1.44,6.12,6.12,0,0,1-2,.86,10,10,0,0,1-2.55.3,10.88,10.88,0,0,1-2.59-.3,9.7,9.7,0,0,1-2.33-.86,9.09,9.09,0,0,1-2-1.46l.66-1a7.33,7.33,0,0,0,1.23,1,8.29,8.29,0,0,0,1.48.78,9.85,9.85,0,0,0,1.72.5,9.07,9.07,0,0,0,1.9.19,6.55,6.55,0,0,0,3.59-.85,3.17,3.17,0,0,0,.71-4.4,4.3,4.3,0,0,0-1.83-1.18,24.69,24.69,0,0,0-3.09-.85,21.17,21.17,0,0,1-3.15-.89,4.33,4.33,0,0,1-2-1.33,3.56,3.56,0,0,1-.66-2.27,4.48,4.48,0,0,1,.78-2.67,4.77,4.77,0,0,1,2.19-1.67,8.58,8.58,0,0,1,3.23-.57,9.44,9.44,0,0,1,2.12.23,6.38,6.38,0,0,1,1.8.68A7,7,0,0,1,217,177Z"></path><polygon class="cls-3" points="233.32 176.19 226.9 176.19 226.9 192.6 225.64 192.6 225.64 176.19 219.22 176.19 219.22 175.06 233.32 175.06 233.32 176.19"></polygon><rect class="cls-3" x="236.04" y="175.06" width="1.26" height="17.54"></rect><path class="cls-3" d="M248.91,192.72a7.21,7.21,0,0,1-3.29-.77,8.75,8.75,0,0,1-2.61-2,9.41,9.41,0,0,1-1.72-2.87,9.13,9.13,0,0,1-.61-3.25,9.34,9.34,0,0,1,.6-3.32,8.93,8.93,0,0,1,1.68-2.84,8.16,8.16,0,0,1,2.57-2,7.26,7.26,0,0,1,3.23-.73A7.51,7.51,0,0,1,253,176a7,7,0,0,1,2.46,2.75l-1,.62a5.65,5.65,0,0,0-2.36-2.51,7,7,0,0,0-3.32-.78,6,6,0,0,0-2.82.66,6.88,6.88,0,0,0-2.15,1.75,8.24,8.24,0,0,0-1.36,2.49,8.86,8.86,0,0,0-.47,2.84,8,8,0,0,0,.55,2.94,8.13,8.13,0,0,0,1.51,2.47,7.12,7.12,0,0,0,2.24,1.7,6.29,6.29,0,0,0,2.75.62,6.62,6.62,0,0,0,3.21-.83,9.83,9.83,0,0,0,2.89-2.6v1.4a7.8,7.8,0,0,1-6.18,3.19m5.9-7.63h-4v-1h5.06v8.53h-1.09Z"></path><path class="cls-3" d="M265.12,175.06h1.08l7.41,17.54h-1.33l-2.39-5.78h-8.48L259,192.6h-1.36Zm4.34,10.72-3.8-9.19-3.82,9.19Z"></path><path class="cls-3" d="M274.43,183.68a9.25,9.25,0,0,1,2.17-5.94,8,8,0,0,1,2.61-2,7.82,7.82,0,0,1,3.52-.77,7.16,7.16,0,0,1,4,1.08,6.72,6.72,0,0,1,2.47,2.75l-1,.6a5.75,5.75,0,0,0-1.52-1.93,5.69,5.69,0,0,0-1.94-1,7.42,7.42,0,0,0-2.07-.31,6.41,6.41,0,0,0-2.95.67,6.68,6.68,0,0,0-2.19,1.78,8.25,8.25,0,0,0-1.35,2.47,8.69,8.69,0,0,0-.45,2.74,8.14,8.14,0,0,0,.54,3,8.23,8.23,0,0,0,1.5,2.48,7.32,7.32,0,0,0,2.22,1.73,6,6,0,0,0,2.75.64,6.89,6.89,0,0,0,2.16-.36,6.7,6.7,0,0,0,2.07-1.11,5.51,5.51,0,0,0,1.55-2l1.09.51a5.81,5.81,0,0,1-1.7,2.23,8.16,8.16,0,0,1-2.52,1.38,8.64,8.64,0,0,1-2.75.47,7,7,0,0,1-3.28-.78,8.6,8.6,0,0,1-2.61-2.07A9.78,9.78,0,0,1,275,187a9.57,9.57,0,0,1-.59-3.27"></path><rect class="cls-3" x="292.68" y="175.06" width="1.26" height="17.54"></rect><path class="cls-3" d="M305.53,192.72a7.34,7.34,0,0,1-3.33-.75,8.32,8.32,0,0,1-2.6-2,9.41,9.41,0,0,1-2.27-6.12,9.24,9.24,0,0,1,2.36-6.19,8.6,8.6,0,0,1,2.62-2,7.33,7.33,0,0,1,3.24-.73,7.25,7.25,0,0,1,3.35.77,8.16,8.16,0,0,1,2.58,2.05,9.49,9.49,0,0,1,1.68,2.86,9,9,0,0,1,.6,3.22,9.29,9.29,0,0,1-.62,3.37A9.09,9.09,0,0,1,311.4,190a8.34,8.34,0,0,1-2.62,2,7.4,7.4,0,0,1-3.25.72m-6.94-8.89a8.33,8.33,0,0,0,2,5.36,7.12,7.12,0,0,0,2.2,1.73,6.23,6.23,0,0,0,2.8.64,6,6,0,0,0,2.84-.67,6.91,6.91,0,0,0,2.2-1.78,8,8,0,0,0,1.4-2.48,8.41,8.41,0,0,0,.48-2.8,8.26,8.26,0,0,0-.51-2.89,7.82,7.82,0,0,0-1.44-2.47,7.13,7.13,0,0,0-2.21-1.73,6,6,0,0,0-2.76-.64,6.15,6.15,0,0,0-2.86.66,6.9,6.9,0,0,0-2.19,1.78,8.81,8.81,0,0,0-1.41,2.48,8.24,8.24,0,0,0-.5,2.81M306,172.44l-.87-.4,1.51-2.1h1.43Z"></path><polygon class="cls-3" points="318.4 177.4 318.4 192.6 317.14 192.6 317.14 175.06 318.18 175.06 330.4 190.5 330.4 175.06 331.67 175.06 331.67 192.6 330.43 192.6 318.4 177.4"></polygon></g></g></svg> 